<svg width="49" height="49" viewBox="0 0 49 49" fill="none" xmlns="http://www.w3.org/2000/svg">
<g clip-path="url(#clip0_19_2)">
<path d="M10.3018 45.0644L7.14258 9.62964H41.8574L38.6948 45.0588L24.4787 49L10.3018 45.0644Z" fill="#E44D26"/>
<path d="M24.5 45.9876L35.9872 42.8029L38.6899 12.527H24.5V45.9876Z" fill="#F16529"/>
<path d="M24.5001 25.6692H18.7493L18.3521 21.2189H24.5001V16.8729H24.485H13.6025L13.7066 18.0389L14.7747 30.0151H24.5001V25.6692Z" fill="#EBEBEB"/>
<path d="M24.4999 36.956L24.4809 36.9611L19.6408 35.6542L19.3314 32.1881H16.9795H14.9688L15.5776 39.0118L24.4799 41.4832L24.4999 41.4776V36.956Z" fill="#EBEBEB"/>
<path d="M10.3726 0H12.5811V2.18203H14.6014V0H16.81V6.60773H14.6015V4.39507H12.5812V6.60773H10.3727L10.3726 0Z" fill="black"/>
<path d="M19.7143 2.19122H17.77V0H23.8682V2.19122H21.9231V6.60773H19.7144L19.7143 2.19122Z" fill="black"/>
<path d="M24.8359 0H27.1388L28.5554 2.32176L29.9706 0H32.2744V6.60773H30.0749V3.33257L28.5554 5.68199H28.5174L26.9969 3.33257V6.60773H24.8359V0Z" fill="black"/>
<path d="M33.3735 0H35.5827V4.42359H38.6886V6.60773H33.3735V0Z" fill="black"/>
<path d="M24.4849 25.6692V30.0151H29.8364L29.3319 35.6514L24.4849 36.9597V41.4811L33.3943 39.0118L33.4596 38.2776L34.4809 26.8362L34.5869 25.6692H33.4158H24.4849Z" fill="white"/>
<path d="M24.4849 16.8729V19.5721V21.2083V21.2189H34.9684H34.9823L35.0695 20.2421L35.2675 18.0389L35.3715 16.8729H24.4849Z" fill="white"/>
</g>
<defs>
<clipPath id="clip0_19_2">
<rect width="49" height="49" fill="white"/>
</clipPath>
</defs>
</svg>
