<svg width="161" height="80" viewBox="0 0 161 80" fill="none" xmlns="http://www.w3.org/2000/svg">
<g clip-path="url(#clip0_1_114)">
<g clip-path="url(#clip1_1_114)">
<path d="M23.5467 34.5733L16 27.0267L8.45337 34.5733C4.29337 38.7333 4.29337 45.4933 8.45337 49.6533C10.5334 51.7333 13.2667 52.7733 16 52.7733C18.7334 52.7733 21.4667 51.7333 23.5467 49.6533C27.7067 45.4933 27.7067 38.7333 23.5467 34.5733V34.5733ZM16 50.12C13.8667 50.12 11.8534 49.2933 10.3467 47.7733C8.82671 46.2533 8.00004 44.2533 8.00004 42.12C8.00004 39.9867 8.82671 37.9733 10.3467 36.4667L16 30.8V50.12Z" fill="#024A58"/>
</g>
</g>
<path d="M41.1701 48.5L36.4492 31.7727H39.7081L42.7219 44.065H42.8771L46.0952 31.7727H49.06L52.2862 44.0732H52.4332L55.4471 31.7727H58.706L53.9851 48.5H50.9957L47.647 36.7631H47.5163L44.1594 48.5H41.1701ZM63.0062 48.7532C62.2112 48.7532 61.4952 48.6116 60.8581 48.3285C60.2265 48.0399 59.7256 47.6152 59.3553 47.0543C58.9905 46.4935 58.8081 45.802 58.8081 44.9798C58.8081 44.2719 58.9387 43.6866 59.2001 43.2237C59.4615 42.7609 59.8181 42.3906 60.2701 42.1129C60.722 41.8352 61.2311 41.6256 61.7974 41.484C62.3691 41.337 62.9599 41.2308 63.5698 41.1655C64.3049 41.0893 64.9011 41.0212 65.3585 40.9613C65.8159 40.896 66.148 40.7979 66.3549 40.6673C66.5673 40.5311 66.6735 40.3215 66.6735 40.0384V39.9893C66.6735 39.3741 66.4911 38.8976 66.1262 38.56C65.7614 38.2224 65.236 38.0536 64.5499 38.0536C63.8257 38.0536 63.2512 38.2115 62.8265 38.5273C62.4073 38.8432 62.1241 39.2161 61.9771 39.6463L59.2164 39.2543C59.4342 38.492 59.7936 37.8549 60.2946 37.343C60.7955 36.8258 61.4081 36.4392 62.1323 36.1832C62.8565 35.9219 63.6569 35.7912 64.5336 35.7912C65.138 35.7912 65.7396 35.862 66.3386 36.0036C66.9376 36.1451 67.4848 36.3793 67.9803 36.706C68.4758 37.0272 68.8733 37.4656 69.1728 38.021C69.4777 38.5763 69.6302 39.2706 69.6302 40.1037V48.5H66.7878V46.7766H66.6898C66.5101 47.1251 66.2569 47.4518 65.9302 47.7567C65.609 48.0562 65.2033 48.2985 64.7132 48.4837C64.2286 48.6634 63.6596 48.7532 63.0062 48.7532ZM63.774 46.5806C64.3675 46.5806 64.882 46.4635 65.3176 46.2294C65.7533 45.9898 66.0881 45.674 66.3223 45.282C66.5618 44.8899 66.6816 44.4625 66.6816 43.9996V42.5213C66.5891 42.5975 66.4312 42.6683 66.2079 42.7337C65.9901 42.799 65.7451 42.8562 65.4728 42.9052C65.2006 42.9542 64.931 42.9978 64.6642 43.0359C64.3974 43.074 64.166 43.1067 63.97 43.1339C63.5289 43.1938 63.1342 43.2918 62.7857 43.4279C62.4372 43.564 62.1622 43.7546 61.9608 43.9996C61.7593 44.2392 61.6586 44.5496 61.6586 44.9308C61.6586 45.4753 61.8573 45.8864 62.2548 46.1641C62.6523 46.4418 63.1587 46.5806 63.774 46.5806ZM78.8677 35.9545V38.2415H71.6557V35.9545H78.8677ZM73.4363 32.9489H76.3929V44.7266C76.3929 45.1241 76.4528 45.429 76.5726 45.6413C76.6979 45.8482 76.8612 45.9898 77.0627 46.0661C77.2641 46.1423 77.4874 46.1804 77.7324 46.1804C77.9176 46.1804 78.0864 46.1668 78.2388 46.1396C78.3967 46.1123 78.5165 46.0878 78.5982 46.0661L79.0964 48.3775C78.9385 48.4319 78.7125 48.4918 78.4185 48.5572C78.1299 48.6225 77.776 48.6606 77.3567 48.6715C76.6162 48.6933 75.9492 48.5817 75.3556 48.3366C74.7621 48.0862 74.2911 47.6996 73.9426 47.1768C73.5996 46.6541 73.4308 46.0007 73.4363 45.2166V32.9489ZM86.7597 48.745C85.5019 48.745 84.4156 48.4837 83.5008 47.9609C82.5915 47.4328 81.8918 46.6868 81.4017 45.723C80.9117 44.7538 80.6666 43.613 80.6666 42.3008C80.6666 41.0103 80.9117 39.8777 81.4017 38.9031C81.8972 37.9229 82.5887 37.1606 83.4763 36.6161C84.3638 36.0662 85.4066 35.7912 86.6045 35.7912C87.3777 35.7912 88.1073 35.9164 88.7934 36.1669C89.4849 36.4119 90.0948 36.7931 90.623 37.3104C91.1566 37.8277 91.5758 38.4865 91.8808 39.2869C92.1857 40.0819 92.3382 41.0294 92.3382 42.1293V43.0359H82.0551V41.043H89.504C89.4986 40.4767 89.376 39.973 89.1365 39.532C88.8969 39.0855 88.562 38.7343 88.1318 38.4783C87.7071 38.2224 87.2116 38.0945 86.6453 38.0945C86.0409 38.0945 85.51 38.2415 85.0526 38.5355C84.5953 38.8241 84.2386 39.2053 83.9827 39.679C83.7322 40.1473 83.6043 40.6618 83.5988 41.2227V42.9624C83.5988 43.692 83.7322 44.3182 83.999 44.8409C84.2658 45.3582 84.6388 45.7557 85.118 46.0334C85.5972 46.3056 86.158 46.4418 86.8005 46.4418C87.2307 46.4418 87.62 46.3819 87.9685 46.2621C88.317 46.1368 88.6192 45.9544 88.8751 45.7148C89.131 45.4753 89.3243 45.1785 89.455 44.8246L92.2156 45.1349C92.0414 45.8646 91.7093 46.5017 91.2192 47.0462C90.7346 47.5852 90.1138 48.0045 89.357 48.304C88.6001 48.598 87.7343 48.745 86.7597 48.745ZM94.8395 48.5V35.9545H97.7063V38.0455H97.837C98.0657 37.3213 98.4577 36.7631 99.0131 36.3711C99.574 35.9736 100.214 35.7749 100.933 35.7749C101.096 35.7749 101.278 35.783 101.48 35.7994C101.687 35.8103 101.858 35.8293 101.994 35.8565V38.5763C101.869 38.5328 101.67 38.4947 101.398 38.462C101.131 38.4239 100.873 38.4048 100.622 38.4048C100.083 38.4048 99.5985 38.5219 99.1683 38.756C98.7436 38.9847 98.4087 39.3033 98.1637 39.7116C97.9187 40.12 97.7962 40.591 97.7962 41.1246V48.5H94.8395ZM108.098 48.7205C107.112 48.7205 106.23 48.4673 105.451 47.9609C104.673 47.4545 104.057 46.7195 103.605 45.7557C103.153 44.7919 102.927 43.6212 102.927 42.2436C102.927 40.8497 103.156 39.6735 103.614 38.7152C104.076 37.7514 104.7 37.0245 105.484 36.5344C106.268 36.0389 107.142 35.7912 108.106 35.7912C108.841 35.7912 109.445 35.9164 109.919 36.1669C110.393 36.4119 110.768 36.7087 111.046 37.0572C111.324 37.4002 111.539 37.7242 111.691 38.0291H111.814V31.7727H114.779V48.5H111.871V46.5234H111.691C111.539 46.8284 111.318 47.1523 111.03 47.4954C110.741 47.833 110.36 48.1216 109.886 48.3612C109.413 48.6007 108.816 48.7205 108.098 48.7205ZM108.922 46.2947C109.549 46.2947 110.082 46.1259 110.523 45.7884C110.964 45.4453 111.299 44.9689 111.528 44.359C111.757 43.7492 111.871 43.0386 111.871 42.2273C111.871 41.416 111.757 40.7108 111.528 40.1119C111.305 39.5129 110.973 39.0473 110.532 38.7152C110.096 38.383 109.56 38.217 108.922 38.217C108.264 38.217 107.714 38.3885 107.273 38.7315C106.832 39.0746 106.499 39.5483 106.276 40.1527C106.053 40.7571 105.941 41.4486 105.941 42.2273C105.941 43.0114 106.053 43.7111 106.276 44.3263C106.505 44.9362 106.84 45.4181 107.281 45.772C107.727 46.1205 108.275 46.2947 108.922 46.2947ZM117.929 48.5V35.9545H120.796V38.0455H120.927C121.156 37.3213 121.548 36.7631 122.103 36.3711C122.664 35.9736 123.304 35.7749 124.022 35.7749C124.186 35.7749 124.368 35.783 124.57 35.7994C124.777 35.8103 124.948 35.8293 125.084 35.8565V38.5763C124.959 38.5328 124.76 38.4947 124.488 38.462C124.221 38.4239 123.962 38.4048 123.712 38.4048C123.173 38.4048 122.688 38.5219 122.258 38.756C121.833 38.9847 121.499 39.3033 121.254 39.7116C121.009 40.12 120.886 40.591 120.886 41.1246V48.5H117.929ZM132.004 48.745C130.779 48.745 129.717 48.4755 128.819 47.9364C127.92 47.3974 127.223 46.6432 126.728 45.674C126.238 44.7048 125.993 43.5722 125.993 42.2763C125.993 40.9804 126.238 39.8451 126.728 38.8704C127.223 37.8957 127.92 37.1388 128.819 36.5998C129.717 36.0607 130.779 35.7912 132.004 35.7912C133.229 35.7912 134.291 36.0607 135.19 36.5998C136.088 37.1388 136.782 37.8957 137.272 38.8704C137.768 39.8451 138.016 40.9804 138.016 42.2763C138.016 43.5722 137.768 44.7048 137.272 45.674C136.782 46.6432 136.088 47.3974 135.19 47.9364C134.291 48.4755 133.229 48.745 132.004 48.745ZM132.021 46.3764C132.685 46.3764 133.24 46.194 133.687 45.8292C134.133 45.4589 134.465 44.9634 134.683 44.3427C134.906 43.7219 135.018 43.0304 135.018 42.2681C135.018 41.5004 134.906 40.8061 134.683 40.1854C134.465 39.5592 134.133 39.061 133.687 38.6907C133.24 38.3204 132.685 38.1353 132.021 38.1353C131.34 38.1353 130.774 38.3204 130.322 38.6907C129.875 39.061 129.54 39.5592 129.317 40.1854C129.099 40.8061 128.99 41.5004 128.99 42.2681C128.99 43.0304 129.099 43.7219 129.317 44.3427C129.54 44.9634 129.875 45.4589 130.322 45.8292C130.774 46.194 131.34 46.3764 132.021 46.3764ZM140.525 53.2045V35.9545H143.433V38.0291H143.604C143.757 37.7242 143.972 37.4002 144.249 37.0572C144.527 36.7087 144.903 36.4119 145.377 36.1669C145.85 35.9164 146.455 35.7912 147.19 35.7912C148.159 35.7912 149.033 36.0389 149.812 36.5344C150.596 37.0245 151.216 37.7514 151.674 38.7152C152.137 39.6735 152.368 40.8497 152.368 42.2436C152.368 43.6212 152.142 44.7919 151.69 45.7557C151.238 46.7195 150.623 47.4545 149.844 47.9609C149.066 48.4673 148.184 48.7205 147.198 48.7205C146.479 48.7205 145.883 48.6007 145.409 48.3612C144.936 48.1216 144.554 47.833 144.266 47.4954C143.983 47.1523 143.762 46.8284 143.604 46.5234H143.482V53.2045H140.525ZM143.425 42.2273C143.425 43.0386 143.539 43.7492 143.768 44.359C144.002 44.9689 144.337 45.4453 144.772 45.7884C145.213 46.1259 145.747 46.2947 146.373 46.2947C147.026 46.2947 147.574 46.1205 148.015 45.772C148.456 45.4181 148.788 44.9362 149.011 44.3263C149.24 43.7111 149.354 43.0114 149.354 42.2273C149.354 41.4486 149.243 40.7571 149.019 40.1527C148.796 39.5483 148.464 39.0746 148.023 38.7315C147.582 38.3885 147.032 38.217 146.373 38.217C145.741 38.217 145.205 38.383 144.764 38.7152C144.323 39.0473 143.988 39.5129 143.759 40.1119C143.536 40.7108 143.425 41.416 143.425 42.2273Z" fill="#252630"/>
<defs>
<clipPath id="clip0_1_114">
<rect width="32" height="32" fill="white" transform="translate(0 24)"/>
</clipPath>
<clipPath id="clip1_1_114">
<rect width="32" height="32" fill="white" transform="translate(0 24)"/>
</clipPath>
</defs>
</svg>
